<?xml version="1.0" encoding="utf-8"?>
<!-- Uploaded to: SVG Repo, www.svgrepo.com, Generator: SVG Repo Mixer Tools -->
<svg fill="#000000" width="800px" height="800px" viewBox="0 0 32 32" version="1.1" xmlns="http://www.w3.org/2000/svg">
<title>googlecloud</title>
<path d="M15.79 9.159c0.064-0.002 0.139-0.003 0.214-0.003 1.571 0 3.016 0.543 4.156 1.451l-0.014-0.010c1.427 1.197 2.328 2.981 2.328 4.975 0 0.042-0 0.085-0.001 0.127l0-0.006v0.647c0.019-0 0.041-0.001 0.063-0.001 1.792 0 3.245 1.453 3.245 3.245s-1.453 3.245-3.245 3.245c-0.022 0-0.044-0-0.066-0.001l0.003 0h-6.489l-0.010 0.011v-0.050h-6.491c0 0 0 0 0 0-0.483 0-0.942-0.106-1.353-0.296l0.020 0.008h0.001c-1.134-0.523-1.907-1.649-1.907-2.956 0-1.792 1.453-3.245 3.245-3.245 1.307 0 2.434 0.773 2.948 1.886l0.008 0.020 3.765-3.764c-1.232-1.594-2.994-2.727-5.018-3.134l-0.054-0.009c0.022-0.012 0.050-0.032 0.067-0.029 1.145-1.253 2.767-2.053 4.576-2.112l0.010-0zM16.237 3.978c-0.081-0.002-0.175-0.003-0.271-0.003-5.36 0-9.877 3.612-11.249 8.535l-0.020 0.082c0.066-0.025-0.069 0.016 0 0-2.242 1.526-3.696 4.066-3.696 6.945 0 2.747 1.322 5.184 3.365 6.711l0.022 0.016 0.008-0.009-0.009 0.037c1.389 1.058 3.149 1.695 5.057 1.695 0.013 0 0.026-0 0.039-0h6.462l0.037 0.037h6.488c0.020 0 0.043 0 0.066 0 4.662 0 8.44-3.779 8.44-8.44 0-2.898-1.46-5.454-3.685-6.974l-0.029-0.019c-0.63-2.274-1.862-4.207-3.514-5.678l-0.012-0.010-0.054 0.054 0.008-0.062c-1.982-1.755-4.586-2.849-7.443-2.916l-0.014-0z"></path>
</svg>